<?xml version="1.0" encoding="utf-8"?>
<!DOCTYPE svg>
<svg version="1.1" xmlns="http://www.w3.org/2000/svg" xmlns:xlink="http://www.w3.org/1999/xlink" x="0px" y="0px" viewBox="0 0 256 256" enable-background="new 0 0 256 256" xml:space="preserve">
<g><g><path fill="#f0f0f2" d="M193.8,140.9v-25.8h-52.8V62.2h-25.8v52.9H62.3v25.8h52.9v52.9h25.8v-52.9H193.8z M219.6,10c7,0,13.1,2.7,18.4,8c5.3,5.3,8,11.5,8,18.4v183.1c0,7-2.7,13.1-8,18.4c-5.3,5.3-11.5,8-18.4,8H36.4c-7.4,0-13.6-2.7-18.8-8c-5.1-5.3-7.7-11.4-7.7-18.4V36.4c0-7,2.6-13.1,7.7-18.4c5.1-5.3,11.4-8,18.8-8H219.6z"/></g></g>
</svg>