<?xml version="1.0" encoding="utf-8"?>
<!-- Generator: Adobe Illustrator 27.2.0, SVG Export Plug-In . SVG Version: 6.00 Build 0)  -->
<svg version="1.1" id="Layer_1" xmlns="http://www.w3.org/2000/svg" xmlns:xlink="http://www.w3.org/1999/xlink" x="0px" y="0px"
	 viewBox="0 0 512 512" style="enable-background:new 0 0 512 512;" xml:space="preserve">
<style type="text/css">
	.st0{fill:#212121;}
</style>
<g>
	<path class="st0" d="M352.6,26.02c34.69-34.7,90.94-34.7,125.64,0c34.69,34.69,34.69,90.94,0,125.63l-22.14,22.14L330.46,48.16
		L352.6,26.02z M304.13,74.49L55.93,322.72c-10.09,10.09-17.18,22.78-20.48,36.66L8.25,473.61c-1.5,6.29,0.38,12.91,4.95,17.48
		c4.57,4.57,11.19,6.44,17.48,4.95l114.23-27.2c13.88-3.3,26.58-10.4,36.67-20.49l28.58-28.58c-2.49-11.26-3.8-22.96-3.8-34.96
		c0-89.12,72.24-161.36,161.36-161.36c12,0,23.69,1.31,34.94,3.79l27.11-27.11L304.13,74.49z M287.71,297.32
		c7.81,27.06-8.43,55.2-35.78,61.97l-14.5,3.59c-1.12,7.14-1.69,14.47-1.69,21.94c0,7.81,0.63,15.47,1.85,22.92l13.39,3.23
		c27.62,6.65,44.04,35.08,36,62.32l-4.63,15.67c10.9,9.57,23.33,17.35,36.85,22.88l12.25-12.88c19.58-20.58,52.4-20.58,71.97,0.01
		L415.79,512c13.49-5.47,25.91-13.17,36.81-22.66l-4.92-17.03c-7.82-27.07,8.43-55.2,35.78-61.97l14.49-3.59
		c1.11-7.14,1.69-14.47,1.69-21.94c0-7.81-0.63-15.47-1.85-22.93l-13.38-3.22c-27.62-6.65-44.04-35.07-35.99-62.32l4.62-15.66
		c-10.9-9.58-23.33-17.35-36.85-22.88l-12.24,12.87c-19.58,20.59-52.4,20.58-71.97-0.01l-12.38-13.03
		c-13.49,5.47-25.9,13.16-36.81,22.66L287.71,297.32z M367.69,422.05c-19.88,0-35.99-16.67-35.99-37.24s16.11-37.24,35.99-37.24
		c19.88,0,35.99,16.67,35.99,37.24S387.57,422.05,367.69,422.05z"/>
</g>
</svg>
