<?xml version="1.0" encoding="utf-8"?>
<!DOCTYPE svg>
<svg version="1.1" xmlns="http://www.w3.org/2000/svg" xmlns:xlink="http://www.w3.org/1999/xlink" x="0px" y="0px" viewBox="0 0 256 256" enable-background="new 0 0 256 256" xml:space="preserve">
<g><g><g><path fill="#f0f0f2" d="M55.6,10.8C32.7,14.3,14.2,32.9,10.8,56c-1,6.7-1,137.3,0,144c3.5,23.2,22,41.7,45.2,45.2c6.7,1,137.3,1,144,0c23.2-3.5,41.7-22,45.2-45.2c1-6.7,1-137.3,0-144c-3.5-23.2-22-41.7-45.2-45.2C193.6,9.8,61.8,9.8,55.6,10.8z M144.1,49.3c0,2.3,3.3,22.7,3.7,23.4c0.4,0.6,2.2,1.8,4.1,2.6c1.9,0.9,5.5,3,8.1,4.7c3.1,2.1,5,3,6,3c0.7,0,5.8-1.8,11.2-4c5.4-2.2,10.1-4,10.5-4c0.4,0,16.3,26.7,16.3,27.4c0,0.1-4.1,3.3-9,7.2c-4.9,3.8-9.1,7.4-9.3,8c-0.2,0.5-0.4,5.3-0.4,10.6c0,8.7,0,9.8,0.8,10.7c0.5,0.6,4.6,4,9.1,7.5c4.6,3.5,8.3,6.6,8.5,6.9c0.2,0.3-14.9,26.9-15.7,27.6c-0.1,0.1-5-1.7-10.8-4.1c-7.8-3.1-10.9-4.2-11.8-4c-0.7,0.1-3,1.4-5.2,2.9c-2.2,1.4-5.8,3.5-8,4.7c-3.3,1.7-4.2,2.3-4.7,3.5c-0.3,0.8-1.1,5.9-1.6,11.4c-0.6,5.4-1.2,10.3-1.3,10.7c-0.2,0.8-1.4,0.8-16.5,0.8c-9,0-16.3-0.1-16.3-0.2c0-1.9-3.4-22.7-3.8-23.3c-0.3-0.5-2.2-1.7-4.1-2.6c-1.9-0.9-5.5-3-8.1-4.7c-3.6-2.4-4.9-3-6.2-3c-0.9,0-5.9,1.8-11.2,4c-5.3,2.2-9.9,4-10.2,4c-0.4,0-15.4-25.1-16.3-27.2c-0.1-0.2,3.9-3.5,8.8-7.4c5-3.9,9.2-7.5,9.4-8c0.1-0.6,0.3-5.3,0.3-10.6c0-8.7,0-9.8-0.8-10.7c-0.5-0.6-4.6-4-9.1-7.5c-4.6-3.5-8.4-6.6-8.5-6.9c-0.2-0.3,14.8-26.8,15.6-27.6c0.1-0.1,5,1.7,10.9,4.1c7.6,3.1,11,4.2,11.8,4.1c0.7-0.1,3-1.4,5.1-2.9c2.2-1.4,5.8-3.5,8-4.7c3.3-1.7,4.2-2.3,4.7-3.5c0.3-0.8,1.1-5.9,1.6-11.4c0.6-5.4,1.2-10.3,1.3-10.7c0.2-0.7,1.4-0.8,16.5-0.8C136.8,49.2,144.1,49.3,144.1,49.3z"/><path fill="#f0f0f2" d="M121.5,99.2c-10.8,2.3-20.1,11.7-22.3,22.5c-4.4,20.9,14.1,39.4,35,35c11-2.3,20.3-11.6,22.6-22.6C161.2,113.2,142.6,94.7,121.5,99.2z"/></g></g></g>
</svg>